<svg width="158" height="158" viewBox="0 0 158 158" fill="none" xmlns="http://www.w3.org/2000/svg">
<mask id="mask0_65_53" style="mask-type:luminance" maskUnits="userSpaceOnUse" x="0" y="0" width="158" height="158">
<path d="M1.52588e-05 158L158 158L158 1.52588e-05L2.90716e-05 1.44599e-06L1.52588e-05 158Z" fill="white"/>
</mask>
<g mask="url(#mask0_65_53)">
<path d="M113.499 29.1203C122.905 29.1039 132.155 31.5306 140.341 36.1629C140.388 36.185 140.432 36.185 140.456 36.2071L140.478 36.2071C140.49 36.221 140.506 36.2296 140.524 36.2312C141.934 37.0184 143.304 37.8772 144.626 38.8044L144.648 38.8044C146.091 39.7971 147.483 40.8617 148.818 41.9942C153.282 50.3933 156.178 59.5358 157.363 68.9734C157.783 72.2996 157.996 75.6486 158 79.0009C158.004 89.3513 155.976 99.6014 152.03 109.17C151.992 109.223 151.968 109.286 151.962 109.351C151.949 109.39 151.935 109.428 151.918 109.465C144.084 128.14 129.4 143.109 110.879 151.301C111.335 150.64 111.789 149.957 112.223 149.25L112.245 149.228L112.245 149.206C112.254 149.165 112.27 149.127 112.292 149.091C117.775 140.213 120.611 129.954 120.466 119.52C120.321 109.086 117.2 98.9098 111.472 90.1875C111.459 90.1766 111.45 90.1608 111.448 90.1433C111.446 90.126 111.438 90.1097 111.426 90.0971C110.675 89.0043 109.945 87.9317 109.124 86.9072C109.124 86.8831 109.124 86.861 109.102 86.861L107.985 84.9025C107.983 84.8851 107.976 84.8684 107.963 84.8563L107.894 84.788L104.202 78.3601L88.1608 50.5614C87.2464 49.0005 85.9478 47.6994 84.3884 46.782C82.829 45.8646 81.0608 45.3617 79.2521 45.3207C79.2075 45.3076 79.1617 45.2996 79.1155 45.2966C76.7685 45.2652 74.477 46.0103 72.5972 47.4158C74.1289 45.6907 75.7736 44.0694 77.5206 42.5627C77.5688 42.5183 77.622 42.4799 77.6793 42.4482C86.7834 34.5664 98.2403 29.9196 110.263 29.2328C111.335 29.1665 112.406 29.1203 113.499 29.1203Z" fill="url(#paint0_linear_65_53)"/>
<path d="M4.08033 53.89C4.17072 54.8019 4.30732 55.6978 4.44391 56.5776C4.4646 56.6433 4.48007 56.7104 4.49011 56.7785C6.42652 68.5006 12.121 79.2754 20.7152 87.4788C29.3095 95.682 40.3376 100.869 52.137 102.258C52.1878 102.276 52.2416 102.285 52.2957 102.282C53.983 102.483 55.6904 102.601 57.4219 102.646C57.527 102.667 57.6343 102.675 57.7413 102.67C57.8468 102.687 57.9538 102.695 58.0607 102.692L99.9425 102.692C101.579 102.705 103.195 102.331 104.659 101.599C105.946 100.957 107.088 100.06 108.015 98.9615C108.943 97.8631 109.637 96.5872 110.055 95.2114C110.473 93.8358 110.606 92.3894 110.446 90.9605C110.286 89.5317 109.837 88.1505 109.124 86.9013C109.946 87.9258 110.675 88.9984 111.426 90.0912C111.439 90.1038 111.446 90.1201 111.449 90.1374C111.451 90.1548 111.459 90.1707 111.473 90.1816C118.8 101.375 121.805 114.852 119.925 128.098C119.767 129.239 119.562 130.378 119.311 131.493C118.027 137.725 115.651 143.681 112.292 149.085C112.271 149.121 112.255 149.159 112.246 149.2L112.246 149.222L112.224 149.244C111.79 149.951 111.336 150.634 110.88 151.295C100.837 155.727 89.9787 158.009 79.0016 157.994C77.1556 157.994 75.3337 157.926 73.5098 157.811C72.3246 157.721 71.1395 157.63 69.9543 157.494C69.8802 157.472 69.8043 157.456 69.7274 157.448C50.5111 155.189 32.7936 145.952 19.9394 131.49C7.08538 117.028 -0.0100311 98.3496 0.000616809 79.001C-0.00842185 72.2714 0.857337 65.5691 2.5758 59.0624C2.5999 58.9037 2.62201 58.7893 2.6441 58.6969C3.07799 57.0577 3.56409 55.4628 4.08033 53.89Z" fill="url(#paint1_linear_65_53)"/>
<path d="M79.0004 0.000101831C81.3745 -0.0125529 83.7474 0.101539 86.1093 0.341581C99.2047 1.50945 111.801 5.93165 122.752 13.206C133.704 20.4804 142.664 30.3764 148.818 41.9944C147.482 40.8617 146.09 39.7971 144.647 38.8046L144.625 38.8046C143.303 37.8774 141.934 37.0186 140.524 36.2314C140.506 36.2298 140.489 36.2212 140.477 36.2073L140.455 36.2073C140.431 36.1852 140.387 36.1852 140.341 36.1631C132.154 31.5308 122.905 29.1041 113.498 29.1205C112.405 29.1205 111.335 29.1667 110.262 29.235C98.242 29.923 86.7872 34.5698 77.6847 42.4504C77.6275 42.4821 77.5742 42.5205 77.526 42.5649C75.779 44.0716 74.1343 45.6929 72.6026 47.418C71.4902 48.2733 70.5606 49.3429 69.8688 50.5636L69.5052 51.1562L69.5052 51.1803L63.0552 62.3689L61.1871 65.627L48.9339 86.8632C48.5351 87.5625 48.2146 88.3035 47.9777 89.0728C47.5137 90.5969 47.4016 92.2062 47.6495 93.7799C47.8976 95.3535 48.4994 96.8504 49.4095 98.1579C50.3197 99.4654 51.5147 100.549 52.9045 101.328C54.2941 102.107 55.8425 102.56 57.4328 102.654C55.7013 102.61 53.9938 102.495 52.3065 102.29C52.2525 102.293 52.1986 102.284 52.1478 102.266C40.3484 100.877 29.3203 95.6902 20.7262 87.4867C12.1319 79.2835 6.43737 68.5087 4.50097 56.7866C4.49092 56.7185 4.47545 56.6515 4.45476 56.5858C4.31817 55.6979 4.18158 54.8101 4.09118 53.8981C7.20852 44.5676 12.064 35.9116 18.4013 28.3873C25.797 19.4949 35.0611 12.3413 45.5347 7.43497C56.0084 2.52867 67.4346 -0.00994279 79.0004 0.000101831Z" fill="url(#paint2_linear_65_53)"/>
<g style="mix-blend-mode:multiply" opacity="0.3">
<path d="M113.498 29.1203C122.904 29.1039 132.154 31.5306 140.341 36.1629C140.387 36.185 140.431 36.185 140.455 36.2071L140.477 36.2071C140.489 36.221 140.505 36.2296 140.523 36.2312C141.934 37.0184 143.303 37.8772 144.625 38.8044L144.647 38.8044C146.09 39.7969 147.482 40.8615 148.817 41.9942C153.281 50.3933 156.177 59.5358 157.362 68.9734C156.724 68.4511 156.063 67.9268 155.426 67.4247C126.76 45.0254 100.078 45.3287 87.1114 47.3736C86.5872 47.464 86.087 47.5323 85.6089 47.6227C83.8049 46.1698 81.5676 45.3605 79.2513 45.3227C79.2069 45.3096 79.1611 45.3016 79.1147 45.2986C76.7677 45.2673 74.4762 46.0123 72.5964 47.4178C74.1281 45.6927 75.7728 44.0715 77.5198 42.5647C77.568 42.5203 77.6212 42.482 77.6785 42.4502C86.7826 34.5684 98.2396 29.9214 110.262 29.2348C111.335 29.1665 112.405 29.1203 113.498 29.1203Z" fill="#84DA8D" fill-opacity="0.52"/>
</g>
<g style="mix-blend-mode:multiply" opacity="0.2">
<path d="M18.3893 28.3691C20.5519 51.5226 31.0645 73.0985 47.9657 89.0706C47.5016 90.5947 47.3894 92.2041 47.6374 93.7777C47.8855 95.3515 48.4871 96.8482 49.3975 98.1557C50.3076 99.4632 51.5026 100.547 52.8925 101.326C54.2821 102.105 55.8304 102.558 57.4207 102.652C55.6892 102.607 53.9818 102.493 52.2945 102.288C52.2404 102.29 52.1866 102.282 52.1358 102.264C40.3363 100.875 29.3083 95.688 20.7139 87.4848C12.1198 79.2813 6.42531 68.5066 4.4889 56.7845C4.47886 56.7166 4.4634 56.6493 4.44271 56.5836C4.30612 55.6957 4.16952 54.8079 4.07913 53.8959C7.19466 44.5598 12.0501 35.8982 18.3893 28.3691Z" fill="#84DA8D"/>
</g>
<g style="mix-blend-mode:multiply" opacity="0.2">
<path d="M109.125 86.9073C109.946 87.9559 110.698 89.0265 111.449 90.1434C111.451 90.1607 111.459 90.1765 111.473 90.1876C117.209 98.9251 120.33 109.12 120.467 119.572C120.604 130.023 117.752 140.297 112.246 149.182L112.246 149.228L112.224 149.25C111.79 149.957 111.336 150.64 110.88 151.301C100.838 155.733 89.9791 158.015 79.002 158C77.156 158 75.3341 157.932 73.5102 157.817C100.74 137.652 104.545 113.049 104.659 101.599C105.945 100.957 107.086 100.06 108.014 98.9619C108.941 97.8641 109.635 96.5888 110.053 95.2138C110.47 93.8388 110.604 92.3931 110.444 90.9649C110.285 89.5367 109.836 88.1562 109.125 86.9073Z" fill="#80C487"/>
</g>
</g>
<circle cx="79.5" cy="79.5" r="60.5" fill="#E5FFE8"/>
<path d="M53 101.777V55.5972C53 51.9536 55.9536 49 59.5972 49H103.798C104.891 49 105.777 49.8861 105.777 50.9791V94.2377" stroke="#85C58B" stroke-width="4.94786" stroke-linecap="round"/>
<path d="M66.1943 49V75.3886L74.4407 70.1109L82.6872 75.3886V49" stroke="#85C58B" stroke-width="4.94786" stroke-linecap="round" stroke-linejoin="round"/>
<path d="M59.5972 95.1801H105.777" stroke="#85C58B" stroke-width="4.94786" stroke-linecap="round"/>
<path d="M59.5972 108.374H105.777" stroke="#85C58B" stroke-width="4.94786" stroke-linecap="round"/>
<path d="M59.5972 108.374C55.9536 108.374 53 105.421 53 101.777C53 98.1336 55.9536 95.1801 59.5972 95.1801" stroke="#85C58B" stroke-width="4.94786" stroke-linecap="round" stroke-linejoin="round"/>
<defs>
<linearGradient id="paint0_linear_65_53" x1="2823.07" y1="98.8857" x2="2711.81" y2="98.8857" gradientUnits="userSpaceOnUse">
<stop stop-color="#EFFFEE"/>
<stop offset="0.074" stop-color="#EAFFE8"/>
<stop offset="0.293" stop-color="#EAFFE8"/>
<stop offset="0.695" stop-color="#EAFFE8"/>
<stop offset="0.867" stop-color="#EAFFE8"/>
<stop offset="0.965" stop-color="#EAFFE8"/>
<stop offset="1" stop-color="#BCFFC3"/>
</linearGradient>
<linearGradient id="paint1_linear_65_53" x1="2807.58" y1="94.595" x2="2787.48" y2="202.104" gradientUnits="userSpaceOnUse">
<stop offset="0.005" stop-color="#B7DEBA"/>
<stop offset="1" stop-color="#93CE99"/>
</linearGradient>
<linearGradient id="paint2_linear_65_53" x1="2706.42" y1="77.2983" x2="2728.42" y2="206.448" gradientUnits="userSpaceOnUse">
<stop stop-color="#A9E8AF"/>
</linearGradient>
</defs>
</svg>
